# WaveFront *.obj file (generated by CINEMA 4D)

mtllib ./1111未标题_1.mtl

v 61.66150283813477 -64.14285278320312 -179.9696044921875
v 61.66150283813477 135.85714721679688 -179.9696044921875
v 261.6614990234375 -64.14285278320312 -179.9696044921875
v 261.6614990234375 135.85714721679688 -179.9696044921875
v 261.6614990234375 -64.14285278320312 -379.9696044921875
v 261.6614990234375 135.85714721679688 -379.9696044921875
v 61.66150283813477 -64.14285278320312 -379.9696044921875
v 61.66150283813477 135.85714721679688 -379.9696044921875
# 8 vertices

vn 0 0 1
vn 1 0 0
vn 0 0 -1
vn -1 0 0
vn 0 1 0
vn 0 -1 0
# 6 normals

vt 0 0 0
vt 0 1 0
vt 1 1 0
vt 1 0 0
# 4 texture coordinates

o 立方体
usemtl default
f 3/4/1 4/3/1 2/2/1 1/1/1
f 5/4/2 6/3/2 4/2/2 3/1/2
f 7/4/3 8/3/3 6/2/3 5/1/3
f 1/4/4 2/3/4 8/2/4 7/1/4
f 4/4/5 6/3/5 8/2/5 2/1/5
f 5/4/6 3/3/6 1/2/6 7/1/6

v 0 108.28193664550781 175.203857421875
v 0 -108.28193664550781 175.203857421875
v 175.203857421875 0 108.28193664550781
v 175.203857421875 0 -108.28193664550781
v 0 108.28193664550781 -175.203857421875
v 0 -108.28193664550781 -175.203857421875
v -175.203857421875 0 -108.28193664550781
v -175.203857421875 0 108.28193664550781
v 108.28193664550781 175.203857421875 0
v -108.28193664550781 175.203857421875 0
v -108.28193664550781 -175.203857421875 0
v 108.28193664550781 -175.203857421875 0
# 12 vertices

vn 0 0.93417233228683 0.35682210326195
vn 0 0 0
vn 0.57735031843185 0.57735031843185 0.57735025882721
vn 0.93417233228683 0.35682210326195 0
vn 0.57735031843185 0.57735031843185 -0.57735025882721
vn 0 0.93417233228683 -0.35682210326195
vn -0.57735025882721 0.57735031843185 -0.57735031843185
vn -0.93417233228683 0.35682210326195 0
vn -0.57735031843185 0.57735031843185 0.57735025882721
vn 0 -0.93417233228683 0.35682210326195
vn 0.57735031843185 -0.57735025882721 0.57735031843185
vn 0.93417233228683 -0.35682210326195 0
vn 0.57735031843185 -0.57735025882721 -0.57735031843185
vn 0 -0.93417233228683 -0.35682210326195
vn -0.57735025882721 -0.57735031843185 -0.57735031843185
vn -0.93417233228683 -0.35682210326195 0
vn -0.57735031843185 -0.57735025882721 0.57735031843185
vn -0.35682210326195 0 0.93417233228683
vn 0.35682210326195 0 0.93417233228683
vn 0.35682210326195 0 -0.93417233228683
vn -0.35682210326195 0 -0.93417233228683
# 21 normals

vt 0.69999998807907 0.307000041008 0
vt 0.60000002384186 0.1340000629425 0
vt 0.5 0.307000041008 0
vt 0.40000000596046 0.1340000629425 0
vt 0.10000000149012 1 0
vt 0.19999998807907 0.82700002193451 0
vt 0 0.82700002193451 0
vt 0.30000001192093 1 0
vt 1 0.48000001907349 0
vt 0.80000001192093 0.48000001907349 0
vt 0.89999997615814 0.65299999713898 0
vt 0.69999998807907 0.65299999713898 0
vt 0.60000002384186 0.48000001907349 0
vt 0.30000001192093 0.65299999713898 0
vt 0.5 0.65299999713898 0
vt 0.39999997615814 0.48000001907349 0
vt 0.30000001192093 0.307000041008 0
vt 0.20000000298023 0.48000001907349 0
vt 0.10000000149012 0.65400004386902 0
vt 0.39999997615814 0.82700002193451 0
vt 0.5 1 0
vt 0.60000002384186 0.82700002193451 0
# 22 texture coordinates

o 宝石
usemtl default
f 9/7/7 17/6/7 18/5/7
f 9/7/9 11/8/9 17/6/9
f 11/11/10 12/10/10 17/9/10
f 12/10/11 13/12/11 17/9/11
f 13/15/12 18/14/12 17/13/12
f 15/16/13 18/14/13 13/15/13
f 16/17/14 18/14/14 15/16/14
f 16/17/15 9/7/15 18/5/15
f 10/20/16 19/19/16 20/18/16
f 10/20/17 20/22/17 11/21/17
f 20/18/18 12/10/18 11/23/18
f 20/18/19 14/24/19 12/10/19
f 20/18/20 19/19/20 14/24/20
f 19/26/21 15/25/21 14/24/21
f 19/19/22 16/17/22 15/16/22
f 19/19/23 10/20/23 16/17/23
f 9/7/24 16/17/24 10/20/24
f 9/7/25 10/20/25 11/21/25
f 12/10/26 14/24/26 13/12/26
f 14/24/27 15/25/27 13/12/27

